<svg width="250" height="250" viewBox="0 0 250 250" fill="none" xmlns="http://www.w3.org/2000/svg">
<g clip-path="url(#clip0)">
<rect width="250" height="250" fill="#94BFA2"/>
<circle cx="34" cy="34" r="34" transform="translate(1)" fill="#C4C4C4"/>
<circle cx="34" cy="34" r="34" transform="translate(170)" fill="#C4C4C4"/>
<circle cx="34" cy="34" r="34" transform="translate(74)" fill="#C4C4C4"/>
<circle cx="34" cy="34" r="34" transform="translate(35 68)" fill="#C4C4C4"/>
<circle cx="34" cy="34" r="34" transform="translate(82 40)" fill="#F9DEDE" fill-opacity="0.75"/>
<circle cx="34" cy="34" r="34" transform="translate(-17 30)" fill="#F9DEDE" fill-opacity="0.75"/>
<path d="M68 34C68 52.7777 52.7777 68 34 68C15.2223 68 0 52.7777 0 34C0 15.2223 15.2223 0 34 0C52.7777 0 68 15.2223 68 34Z" transform="translate(57 111.5)" fill="#F9DEDE" fill-opacity="0.75"/>
<path d="M187 62.5C187 81.2777 171.778 96.5 153 96.5C134.222 96.5 119 81.2777 119 62.5C119 43.7223 134.222 28.5 153 28.5C171.778 28.5 187 43.7223 187 62.5Z" transform="translate(57 111.5)" fill="#F9DEDE" fill-opacity="0.75"/>
<circle cx="34" cy="34" r="34" transform="translate(1 136)" fill="#C4C4C4"/>
<circle cx="34" cy="34" r="34" transform="translate(136 181)" fill="#C4C4C4"/>
<circle cx="34" cy="34" r="34" transform="translate(11 182)" fill="#F9DEDE"/>
<circle cx="34" cy="34" r="34" transform="translate(177 54)" fill="#F9DEDE"/>
<path d="M117.305 72.1797C109.492 72.1797 105.586 78.8984 105.586 92.3359V186.438C105.586 212.062 95.5469 228.703 75.4688 236.359C68.5938 238.938 60.8203 240.227 52.1484 240.227C43.4766 240.227 36.0938 239.289 30 237.414C23.9062 235.539 18.75 233.039 14.5312 229.914C6.01563 223.508 1.75781 215.734 1.75781 206.594C1.75781 199.719 3.35937 194.289 6.5625 190.305C9.76562 186.242 14.1797 184.211 19.8047 184.211C24.4922 184.211 27.6172 185.305 29.1797 187.492C28.2422 191.242 27.7734 194.875 27.7734 198.391C27.7734 214.406 36.0547 222.414 52.6172 222.414C60.7422 222.414 66.9922 220.07 71.3672 215.383C75.7422 210.617 77.9297 203.898 77.9297 195.227V85.8906C77.7734 81.75 76.9922 79.0156 75.5859 77.6875C73.3984 75.7344 70.8203 74.4844 67.8516 73.9375C64.8828 73.3125 62.3828 72.7656 60.3516 72.2969C58.3984 71.8281 56.7188 71.2422 55.3125 70.5391C52.6562 69.1328 51.3281 66.9062 51.3281 63.8594C51.3281 60.9687 51.9531 58.8203 53.2031 57.4141C55 58.0391 58.8672 58.3516 64.8047 58.3516H115.547C124.453 58.3516 128.906 61.3594 128.906 67.375C128.906 69.9531 128.281 71.9453 127.031 73.3516C124.219 72.5703 120.977 72.1797 117.305 72.1797Z" transform="translate(70 -27)" fill="#981B1E"/>
</g>
<defs>
<clipPath id="clip0">
<rect width="250" height="250" fill="white"/>
</clipPath>
</defs>
</svg>
